<svg xmlns="http://www.w3.org/2000/svg" xmlns:xlink="http://www.w3.org/1999/xlink" version="1.1" preserveAspectRatio="xMidYMid meet" viewBox="38.61 116.36 441.63 366.21"><defs><path d="M455.83 360.1C455.33 282.46 471.61 241.22 444.93 190.04C439.99 180.57 429.86 174.34 420.55 168.4C340.89 117.57 325.28 208.5 274.41 200.71C224.73 193.1 217.88 119.37 158.3 116.91C142.51 116.26 127.31 121.58 115.04 130.75C78.42 158.09 74.76 205.72 78.79 246.03C80.6 264.19 83.03 282.3 84.34 300.51C85.74 320.04 85.35 339.6 86.41 359.13C87.02 370.26 88.14 372.71 99.97 371.66C109.98 370.78 119.98 369.91 129.99 369.15C140.51 368.35 151.02 367.53 161.53 366.75C181.19 365.29 200.84 363.82 220.49 362.27C251.51 359.83 282.57 357.73 313.58 355.13" id="a4eAMEHme2"/><path d="M260.64 469.54L39.5 355.25L258.26 241.18L479.74 355.54L479.74 355.54L260.64 469.54Z" id="e1njsZqePx"/><path d="M479.74 355.54L260.07 469.54L259.68 482.07L479.74 369.35L479.74 369.35L479.74 355.54Z" id="g431HPHkUO"/><path d="M259.68 482.07L39.5 366.52L39.11 353.99L260.21 469.54L260.21 469.54L259.68 482.07Z" id="a2eYFYDzb"/><path d="M199.49 417.56L240.14 393.34L240.19 336.71L146.2 320.11L146.44 385.67L146.44 385.67L199.49 417.56Z" id="b18kL15Zjp"/><path d="M230.43 351.44L230.43 412.65L217.52 412.65L217.52 360L217.52 360L230.43 351.44Z" id="byBnuS7tQ"/><path d="M200.7 345L199.9 417.56L135.17 386.31L138.32 304.55L138.32 304.55L200.7 345Z" id="g4pbQPMab6"/><path d="M207.47 356.51L344.45 278.11L273.37 234.81L137.52 311.2L137.52 314.57L137.52 314.57L207.47 356.51Z" id="a3yYXMpkkJ"/><path d="M207.47 353.17L344.45 274.76L273.37 231.46L137.52 311.23L137.52 311.23L207.47 353.17Z" id="iVM5HTAT"/><path d="M250 272.39L270.63 260.59L259.93 254.07L239.47 265.57L239.47 266.08L239.47 266.08L250 272.39Z" id="a46WA2Qv0Q"/><path d="M249.88 271.25L270.51 259.44L259.8 252.92L239.35 264.93L239.35 264.93L249.88 271.25Z" id="e27EmZvNKJ"/><path d="M228.27 276.87C228.78 277.17 229.4 277.17 229.91 276.87C239.21 271.44 272.34 252.09 278.08 248.74C278.6 248.43 278.93 247.86 278.92 247.24C278.89 241.55 278.72 213.32 278.66 204.05C278.66 203.44 278.34 202.88 277.83 202.58C277.31 202.27 276.68 202.28 276.16 202.58C266.7 208.23 233.13 228.28 227.36 231.73C226.83 232.05 226.51 232.63 226.53 233.25C226.65 238.88 227.23 266.4 227.42 275.42C227.42 275.42 227.42 275.42 227.42 275.42C227.65 276.19 227.93 276.67 228.27 276.87Z" id="b2VAzuxYWX"/><path d="M264.82 257.92C263.34 258.87 251.49 266.45 250.01 267.4C250.01 267.4 248.38 267.04 248.27 265.21C249.21 264.65 253.92 261.86 262.4 256.82L262.4 256.82C263.59 257.65 264.39 258.02 264.82 257.92Z" id="cBffqoKv"/><path d="M229.59 276.08C230.1 276.38 230.73 276.38 231.24 276.08C240.53 270.65 273.67 251.3 279.41 247.95C279.93 247.65 280.25 247.07 280.25 246.45C280.22 240.76 280.05 212.54 279.99 203.27C279.99 202.66 279.67 202.09 279.15 201.79C278.64 201.49 278 201.49 277.49 201.8C268.03 207.45 234.46 227.49 228.68 230.95C228.16 231.26 227.84 231.84 227.85 232.47C227.97 238.09 228.56 265.61 228.75 274.63C228.75 274.63 228.75 274.63 228.75 274.63C228.97 275.4 229.25 275.89 229.59 276.08Z" id="d6mRXXW5f"/><path d="M232.49 271.69C233 271.99 233.62 271.99 234.14 271.69C242.69 266.69 271.17 250.06 276.46 246.97C276.98 246.67 277.3 246.09 277.3 245.47C277.28 240.26 277.18 216.17 277.14 207.69C277.14 207.08 276.82 206.52 276.31 206.22C275.79 205.91 275.16 205.91 274.64 206.22C265.94 211.42 237.09 228.65 231.76 231.83C231.24 232.14 230.92 232.73 230.93 233.35C231.03 238.5 231.49 261.99 231.65 270.23C231.65 270.23 231.65 270.23 231.65 270.23C231.87 271 232.15 271.49 232.49 271.69Z" id="c6085t635o"/><path d="M243.91 255.85C244.42 256.15 245.04 256.15 245.55 255.85C250.89 252.73 263.42 245.42 266.79 243.45C267.31 243.14 267.63 242.57 267.63 241.95C267.62 238.74 267.6 228.59 267.59 223.5C267.59 222.89 267.27 222.33 266.75 222.02C266.23 221.72 265.6 221.72 265.09 222.02C259.65 225.27 246.97 232.84 243.58 234.87C243.06 235.18 242.74 235.76 242.75 236.38C242.81 239.56 242.98 249.44 243.07 254.39C243.07 254.39 243.07 254.39 243.07 254.39C243.29 255.16 243.57 255.65 243.91 255.85Z" id="d17LoY4Wp"/><path d="M254.73 231.83C254.88 232.03 255.15 232.09 255.36 231.97C259.02 229.83 263.99 226.93 264.55 226.6C264.58 226.58 264.61 226.56 264.64 226.53C264.64 226.53 264.64 226.53 264.65 226.53C264.84 226.34 264.87 226.03 264.71 225.8C264.55 225.58 264.25 225.51 264.02 225.65C260.32 227.86 255.42 230.78 254.89 231.1C254.86 231.12 254.83 231.14 254.8 231.17C254.8 231.17 254.8 231.17 254.8 231.17C254.8 231.17 254.8 231.17 254.8 231.17C254.66 231.47 254.64 231.69 254.73 231.83Z" id="a19bn4MhTm"/><path d="M254.73 234.38C254.88 234.59 255.15 234.65 255.36 234.53C259.02 232.39 263.99 229.49 264.55 229.16C264.58 229.14 264.61 229.11 264.64 229.09C264.64 229.09 264.64 229.09 264.65 229.09C264.84 228.9 264.87 228.58 264.71 228.36C264.55 228.13 264.25 228.07 264.02 228.21C260.32 230.42 255.42 233.34 254.89 233.66C254.86 233.68 254.83 233.7 254.8 233.73C254.8 233.73 254.8 233.73 254.8 233.73C254.8 233.73 254.8 233.73 254.8 233.73C254.66 234.03 254.64 234.25 254.73 234.38Z" id="jrkAxvRf7"/><path d="M254.73 236.56C254.88 236.77 255.15 236.83 255.36 236.71C259.02 234.57 263.99 231.67 264.55 231.34C264.58 231.32 264.61 231.29 264.64 231.27C264.64 231.27 264.64 231.27 264.65 231.26C264.84 231.08 264.87 230.76 264.71 230.54C264.55 230.31 264.25 230.25 264.02 230.39C260.32 232.6 255.42 235.52 254.89 235.84C254.86 235.86 254.83 235.88 254.8 235.91C254.8 235.91 254.8 235.91 254.8 235.91C254.8 235.91 254.8 235.91 254.8 235.91C254.66 236.21 254.64 236.43 254.73 236.56Z" id="b6ALQ6P2b"/><path d="M248.43 240.45C248.58 240.6 248.82 240.64 249 240.53C250.39 239.74 252.35 238.62 252.88 238.32C252.97 238.27 253.04 238.19 253.09 238.1C253.09 238.1 253.09 238.1 253.09 238.09C253.19 237.88 253.14 237.61 252.97 237.45C252.8 237.29 252.54 237.26 252.34 237.38C250.95 238.22 249.03 239.37 248.54 239.67C248.46 239.72 248.39 239.78 248.35 239.87C248.35 239.87 248.35 239.87 248.35 239.87L248.35 239.87C248.31 240.15 248.33 240.35 248.43 240.45Z" id="bG2Y9gryF"/><path d="M248.43 243.79C248.58 243.94 248.82 243.98 249 243.87C250.39 243.08 252.35 241.96 252.88 241.66C252.97 241.61 253.04 241.53 253.09 241.44C253.09 241.44 253.09 241.44 253.09 241.44C253.19 241.22 253.14 240.96 252.97 240.79C252.8 240.63 252.54 240.6 252.34 240.72C250.95 241.56 249.03 242.71 248.54 243.01C248.46 243.06 248.39 243.12 248.35 243.21C248.35 243.21 248.35 243.21 248.35 243.21L248.35 243.21C248.31 243.49 248.33 243.69 248.43 243.79Z" id="c1tIWCVv35"/><path d="M260.09 236.61C260.24 236.77 260.47 236.8 260.66 236.69C262.04 235.9 264.01 234.78 264.54 234.48C264.63 234.43 264.7 234.35 264.74 234.26C264.74 234.26 264.74 234.26 264.74 234.26C264.85 234.04 264.8 233.78 264.63 233.62C264.45 233.45 264.2 233.42 263.99 233.54C262.6 234.38 260.68 235.54 260.19 235.83C260.11 235.88 260.05 235.95 260.01 236.03C260.01 236.03 260.01 236.03 260.01 236.03L260.01 236.03C259.96 236.32 259.99 236.51 260.09 236.61Z" id="g4XVtJfDUR"/><path d="M260.09 238.78C260.24 238.93 260.47 238.97 260.66 238.86C262.04 238.07 264.01 236.95 264.54 236.65C264.63 236.6 264.7 236.52 264.74 236.43C264.74 236.43 264.74 236.42 264.74 236.42C264.85 236.21 264.8 235.95 264.63 235.78C264.45 235.62 264.2 235.59 263.99 235.71C262.6 236.55 260.68 237.7 260.19 238C260.11 238.04 260.05 238.11 260.01 238.19C260.01 238.19 260.01 238.19 260.01 238.19L260.01 238.19C259.96 238.48 259.99 238.68 260.09 238.78Z" id="dEZyeWoJ8"/><path d="M301.23 272.77L265.03 295.66L248.67 286.18L287.12 263.28L287.12 263.28L301.23 272.77Z" id="c1zzAmzeNr"/><path d="M286.77 265.24L288.84 266.68L286.55 268.11L284.47 266.69L284.47 266.69L286.77 265.24Z" id="b56kHFOxOc"/><path d="M290.52 267.63L292.59 269.07L290.31 270.5L288.23 269.07L288.23 269.07L290.52 267.63Z" id="beAZjlRoZ"/><path d="M293.68 269.5L295.75 270.94L293.47 272.38L291.39 270.95L291.39 270.95L293.68 269.5Z" id="dYwqrDk0q"/><path d="M297.43 271.9L299.5 273.34L297.22 274.77L295.13 273.35L295.13 273.35L297.43 271.9Z" id="g17cntkui"/><path d="M283 267.48L285.07 268.92L282.79 270.35L280.7 268.93L280.7 268.93L283 267.48Z" id="b7iYYiHPxa"/><path d="M286.75 269.87L288.82 271.31L286.54 272.74L284.46 271.31L284.46 271.31L286.75 269.87Z" id="anoQFp3Np"/><path d="M289.92 271.74L291.99 273.18L289.7 274.62L287.62 273.19L287.62 273.19L289.92 271.74Z" id="hf9A6labk"/><path d="M293.66 274.14L295.73 275.58L293.45 277.01L291.36 275.58L291.36 275.58L293.66 274.14Z" id="aJaaarPAy"/><path d="M279.23 269.72L281.3 271.16L279.02 272.59L276.93 271.16L276.93 271.16L279.23 269.72Z" id="aADXNOGx"/><path d="M282.99 272.1L285.05 273.55L282.77 274.98L280.69 273.55L280.69 273.55L282.99 272.1Z" id="e39Pa8esNn"/><path d="M286.15 273.98L288.22 275.42L285.93 276.86L283.85 275.43L283.85 275.43L286.15 273.98Z" id="a115ppF9T"/><path d="M289.89 276.38L291.96 277.82L283.21 283.3L281.13 281.88L281.13 281.88L289.89 276.38Z" id="j5n8KsgkO"/><path d="M275.46 271.96L277.53 273.4L275.25 274.83L273.16 273.4L273.16 273.4L275.46 271.96Z" id="c176y3X7he"/><path d="M279.22 274.34L281.29 275.79L279 277.22L276.92 275.79L276.92 275.79L279.22 274.34Z" id="a3VzmV1Hi"/><path d="M282.38 276.22L284.45 277.66L282.17 279.09L280.08 277.67L280.08 277.67L282.38 276.22Z" id="b2PR0K8x67"/><path d="M272.31 273.83L274.38 275.27L272.1 276.7L270.01 275.28L270.01 275.28L272.31 273.83Z" id="e1cOO7Mgc"/><path d="M276.07 276.22L278.14 277.66L275.85 279.09L273.77 277.66L273.77 277.66L276.07 276.22Z" id="apUIScpUi"/><path d="M279.23 278.09L281.3 279.53L279.02 280.96L276.93 279.54L276.93 279.54L279.23 278.09Z" id="beneERtMC"/><path d="M268.54 276.07L270.61 277.51L268.33 278.94L266.24 277.51L266.24 277.51L268.54 276.07Z" id="c3taXqHbiU"/><path d="M272.3 278.45L274.37 279.9L272.09 281.33L270 279.9L270 279.9L272.3 278.45Z" id="d34xVV7LBx"/><path d="M275.46 280.33L277.53 281.77L275.25 283.2L273.16 281.78L273.16 281.78L275.46 280.33Z" id="a35n3WQbN1"/><path d="M279.2 282.73L281.27 284.17L278.99 285.6L276.91 284.17L276.91 284.17L279.2 282.73Z" id="b4OgbjXy78"/><path d="M265.39 277.94L267.46 279.38L265.18 280.81L263.1 279.39L263.1 279.39L265.39 277.94Z" id="c1dt6Fuimf"/><path d="M269.15 280.32L271.22 281.77L268.94 283.2L266.85 281.77L266.85 281.77L269.15 280.32Z" id="aYkYa75yA"/><path d="M272.31 282.2L274.38 283.65L272.1 285.08L270.01 283.65L270.01 283.65L272.31 282.2Z" id="biwlnzzAg"/><path d="M261.62 280.18L263.69 281.62L261.41 283.05L259.33 281.62L259.33 281.62L261.62 280.18Z" id="a3ir2IS59"/><path d="M265.38 282.56L267.45 284.01L265.17 285.44L263.08 284.01L263.08 284.01L265.38 282.56Z" id="k1JIMFC3iV"/><path d="M268.54 284.44L270.61 285.88L268.33 287.32L266.24 285.89L266.24 285.89L268.54 284.44Z" id="a2gAuM3lBE"/><path d="M257.85 282.42L259.92 283.86L257.64 285.29L255.56 283.86L255.56 283.86L257.85 282.42Z" id="b22unHuiK"/><path d="M261.61 284.8L263.68 286.25L261.4 287.68L259.31 286.25L259.31 286.25L261.61 284.8Z" id="c6iJTsHzsP"/><path d="M264.77 286.68L266.84 288.12L264.56 289.56L262.48 288.13L262.48 288.13L264.77 286.68Z" id="b1yyaVH29"/><path d="M268.52 289.08L270.59 290.52L268.31 291.95L266.22 290.52L266.22 290.52L268.52 289.08Z" id="h3iiW0nIQ"/><path d="M254.7 284.29L256.77 285.73L254.49 287.16L252.41 285.74L252.41 285.74L254.7 284.29Z" id="b98iTu8LT"/><path d="M258.46 286.68L260.53 288.12L258.25 289.55L256.16 288.12L256.16 288.12L258.46 286.68Z" id="akmiKXS6"/><path d="M261.62 288.55L263.69 289.99L261.41 291.43L259.33 290L259.33 290L261.62 288.55Z" id="akl6iJXl1"/><path d="M265.37 290.95L267.44 292.39L265.16 293.82L263.07 292.4L263.07 292.4L265.37 290.95Z" id="dfdCFjfkV"/><path d="M303.06 267.25C303.06 267.25 310.28 269.09 310.33 263.32C310.33 263.32 309.96 258.49 303.69 258.58C297.43 258.66 298.1 260.99 298.1 260.99C298.1 260.99 298.1 260.99 298.1 260.99C296.9 263.38 298.55 265.47 303.06 267.25Z" id="b36oTYZLj"/><path d="M297.88 261.81C297.88 261.81 296.98 259.77 296.98 259.21C296.98 258.65 307.17 258.02 307.17 258.02C307.44 258.27 308.78 259.53 311.19 261.8C310.86 262.55 310.67 262.97 310.63 263.06C310.63 263.06 308.16 267.05 304.11 265.92C304.11 265.92 304.11 265.92 304.11 265.92C303.01 262.75 300.94 261.38 297.88 261.81Z" id="aaLuliOhL"/><path d="M299.1 259.45C299.64 259.35 300.2 259.25 300.69 259.24C300.88 259.23 301.06 259.24 301.2 259.27C301.23 259.28 301.27 259.29 301.3 259.31C301.31 259.31 301.36 259.32 301.34 259.32C300.87 259.48 300.29 259.51 299.86 259.55C299.11 259.62 298.05 259.83 297.42 260.28" id="b2st36Z0z1"/><path d="M251.6 308.46L225.05 291.83L206.38 304.76L231.73 321.2L231.73 321.2L251.6 308.46Z" id="b2HEpWlzFr"/><path d="M248.37 301.59L221.83 284.96L203.16 297.89L228.51 314.33L228.51 314.33L248.37 301.59Z" id="d1hcmWDA0q"/><path d="M231.8 301.84L205.25 285.21L186.59 298.14L211.93 314.58L211.93 314.58L231.8 301.84Z" id="hkujM3hzz"/><path d="M298.49 367.67C296.44 369.9 292.61 369.26 289.14 368C285.66 366.74 278.06 366.03 274.39 362.75C270.71 359.47 278.22 357.4 278.22 357.4C278.22 357.4 284.61 356.9 287.88 356.92C288.61 357.23 292.29 358.76 298.9 361.52L298.9 361.52C299.99 364.13 299.86 366.18 298.49 367.67Z" id="cry5TZ9xd"/><path d="M273.43 280.6C273.43 280.6 272.43 279.97 273.19 281.21C273.96 282.45 274.92 283.5 274.92 283.5C274.92 283.5 270.36 281.15 268.52 281.73C268.52 281.73 268.15 281.66 267.92 282.14C267.7 282.62 267.07 282.39 267.24 282.76C267.24 282.76 271.16 285.61 271.81 286.49C271.81 286.49 272.79 287.17 268.97 286.78C265.15 286.39 263.09 287.23 264.22 287.54C265.36 287.86 266.88 287.35 268.74 288.31C270.6 289.28 271.3 289.87 274.79 292.85C278.28 295.82 280.34 295.04 281.87 295.2C283.4 295.37 283.26 291.21 283.26 291.21C283.26 291.21 283.26 291.21 283.26 291.21C278.35 284.4 275.08 280.86 273.43 280.6Z" id="b2DLuubBJQ"/><path d="M306.04 306.13C306.04 306.13 289.61 352.27 287.11 357.35C287.11 357.35 291.84 365.89 299.03 361.35C300.4 357.98 307.26 341.12 319.59 310.77L319.59 310.77C312.77 306.11 308.25 304.57 306.04 306.13Z" id="cy5gPNMx5"/><path d="M272.53 393.39C270.27 395.25 264.6 393.13 257.92 391.62C251.24 390.11 246.72 388.79 246.87 385.91C247.02 383.02 246.84 381.63 249.03 381.8C251.22 381.97 261.06 382.82 262.31 382.03C263.03 382.23 266.6 383.2 273.04 384.95L273.04 384.95C274.2 389.34 274.03 392.16 272.53 393.39Z" id="cngm9gprX"/><path d="M298.51 268.64C295.83 267.64 294.47 265.47 292.13 265.61C289.79 265.74 287.55 267.75 288.56 267.51C289.57 267.28 291.87 266.07 293.16 266.99C294.46 267.92 294.87 267.89 295.04 268.42C295.21 268.95 294.5 269.21 293.82 269.13C293.14 269.05 291.82 269.44 290.53 270.2C289.24 270.96 288.99 270.76 288.99 270.76C288.99 270.76 288.27 271.3 289.36 271.22C290.44 271.14 292.1 270.68 293.34 271.09C294.58 271.5 295.65 272.17 296.24 273.13C296.82 274.08 297.72 275.41 297.23 275.83C296.73 276.26 295.26 276.7 293.66 276.46C292.06 276.21 290.34 275.38 290.51 276.03C290.68 276.67 290.61 276.99 293.57 278.25C296.53 279.52 301.85 281.1 304.42 280.19C307 279.28 305.73 275.79 305.73 275.79C305.73 275.79 305.73 275.79 305.73 275.79C302.7 271.69 300.29 269.31 298.51 268.64Z" id="b1eiUMYP1"/><path d="M297.18 322.3C289.66 322.15 277.31 321.57 273.59 323.22C269.87 324.88 270.31 327.08 270 329.19C269.7 331.3 264.79 354.07 260.86 382.2C260.86 382.2 265.63 389.8 273.13 385.98C273.13 385.98 283.8 346.76 283.26 342.51C283.26 342.51 313.08 349.82 319.59 349.37C319.95 348.49 321.7 344.09 324.87 336.16L316 320.22L316 320.22C308.46 321.7 302.19 322.4 297.18 322.3Z" id="bu1ycnpvK"/><path d="M319.26 258.22C320.12 261.7 321.69 262.66 323.84 261.73C323.91 262.2 324.26 264.57 324.88 268.84L339.41 266.67C337.86 260.42 337 256.95 336.82 256.26C336.82 256.26 346.07 225.13 318.83 238.93C318.83 238.93 318.83 238.93 318.83 238.93C316.68 242.02 316.82 248.45 319.26 258.22Z" id="asMJRbpL4"/><path d="M323.62 261.9C323.65 261.86 324.09 261.84 324.18 261.8C324.62 261.59 325.04 261.29 325.45 261.01C325.59 260.92 326.6 260.03 326.75 260.2C326.87 260.34 326.72 260.71 326.69 260.86C326.49 261.57 326.25 262.27 326.04 262.97C325.57 264.56 325.31 266.77 323.84 267.75C323 268.3 321.88 268.37 320.92 268.5" id="eiqk4OBKI"/><path d="M322.57 249.2C322.49 248.99 322.68 248.3 322.7 248.09C323 245.77 325.05 245.46 326.66 246.92C327.75 247.91 328.16 249.31 328.28 250.77C328.35 251.73 328.22 252.86 328.74 253.72C329.56 255.06 331.59 255.4 332.99 255.65C333.87 255.8 334.87 255.85 335.72 255.52C337.7 254.77 338.56 252.46 339.28 250.61C340.97 246.27 342.6 238.93 339.27 235C336.74 232.01 332.09 231.54 328.51 231.81C325.64 232.02 322.7 232.54 319.89 231.58C318.62 231.15 317.54 230.46 316.44 229.7C316.24 229.56 315.68 229.07 315.47 229.43C314.88 230.44 315.17 232.61 315.07 233.74C314.75 237.23 314.45 241.16 316.72 244.11C317.49 245.1 318.49 245.65 319.46 246.39C320.1 246.88 320.67 247.44 321.03 248.19C321.39 248.97 321.27 250.44 322.28 249.81" id="c78g8JHYT"/><path d="M306.43 274.9C306.43 274.9 303.34 278.54 303.75 280.44C304.08 280.71 305.72 282.07 308.68 284.51L311.34 276.55L311.34 276.55C308.39 275.56 306.76 275.01 306.43 274.9Z" id="i7Fa8ICh9g"/><path d="M345.01 268.8C346.41 276.54 346.06 279.16 346.06 279.16C346.06 279.16 333.48 341.58 324.87 341.07C324.87 341.07 312.17 338.29 314.08 323.16C315.98 308.03 314.73 301.12 314.73 301.12C314.69 298.37 314.42 276.36 314.38 273.61C314.38 273.61 328.02 261.42 335.85 261.51C335.85 261.51 335.85 261.51 335.85 261.51C341.03 261.22 344.08 263.65 345.01 268.8Z" id="b7A4TiJMA"/><path d="M314.02 301.6C315.49 300.24 316.82 298.81 317.96 297.15C318.33 296.61 318.71 296.07 319.07 295.52C319.25 295.25 319.38 294.47 319.59 294.71C321.16 296.55 320.69 302.5 320.6 304.87C320.24 314.2 320.41 327.35 314.85 335.19C311.3 340.2 303.79 342.32 300.45 335.98" id="baACCPHrkM"/><path d="M299.6 305.25C299.6 305.25 285.6 291.27 284.67 290.72C284.67 290.72 279.69 291.9 279.66 295.66C279.66 295.66 295.39 320.09 301.74 318.28C301.74 318.28 317.4 304.08 320.66 288.49C323.93 272.89 322.85 269.56 314.38 273.61C314.38 273.61 314.38 273.61 314.38 273.61C308.71 277.57 303.78 288.12 299.6 305.25Z" id="dcoqsM8U4"/><path d="M294.54 393.73C294.54 402.08 310.09 408.87 329.24 408.87C348.4 408.87 363.95 402.08 363.95 393.73C363.95 385.37 348.4 378.58 329.24 378.58C329.24 378.58 329.24 378.58 329.24 378.58C306.11 383.11 294.54 388.15 294.54 393.73Z" id="b6RYPdBE"/><path d="M333.67 391.97C333.67 391.97 328.79 395.98 325.06 391.89C325.06 390.56 325.02 383.9 324.95 371.91L333.37 372.95L333.37 372.95C333.55 384.36 333.65 390.7 333.67 391.97Z" id="b4uaaIfC6"/><path d="M335.18 373.36C335.18 373.36 330.67 377.59 323.49 373.77C323.48 373.2 323.42 370.35 323.31 365.22L335.17 365.19L335.17 365.19C335.17 370.09 335.18 372.82 335.18 373.36Z" id="d41vK1vMAx"/><path d="M338.43 282.63C338.43 282.63 340.18 307.76 331.7 319.43C323.21 331.11 319 346.14 318.67 349.33C318.67 349.33 303 347.45 294.82 345.11C294.82 345.11 294.05 355.7 321.89 367.11C321.89 367.11 330.36 370.14 340.57 364.48C350.78 358.81 366.6 349.83 369.57 346.19C372.53 342.55 387.98 278.37 378.05 263.98C377.82 263.86 376.69 263.24 374.66 262.14L374.66 262.14C354.26 265.97 342.18 272.8 338.43 282.63Z" id="e1j7couEt"/><path d="M378.58 263.9C363.96 267.74 353.86 269.1 343.41 282.03C341.39 284.54 342.73 293.73 342.7 296.59C342.6 306.37 341.56 317.22 337.96 326.4C336.16 330.96 333.87 335.22 332.32 339.9C329.62 348.05 328.28 364.06 316.01 360.12C311.05 358.52 306.88 354.93 303.56 350.93C291.45 336.33 307.29 329.75 313.81 316.98C325.06 294.96 344.4 266.88 363.18 248.83" id="d8M236mHY"/><path d="M88.27 241.18L88.27 280.95L112.75 266.18L112.75 226.41L112.75 226.41L88.27 241.18Z" id="c1kF18xxlA"/><path d="M112.75 228.64C111.19 229.61 103.39 234.44 89.34 243.14L99.12 260.66L118.49 233.24L118.49 233.24C115.67 231.28 113.75 229.75 112.75 228.64Z" id="g4PwFFr0XK"/><path d="M95.62 245.05L95.62 284.81L119.33 270.51L119.33 230.74L119.33 230.74L95.62 245.05Z" id="a1jzPcTyz5"/><path d="M88.27 280.95L88.27 241.17L95.63 245.05L95.62 284.81L95.62 284.81L88.27 280.95Z" id="a2DR9zPtO6"/><path d="M89.34 277.45L89.34 247.43L94.73 250.67L94.73 280.34L94.73 280.34L89.34 277.45Z" id="a37BTs7gQv"/><path d="M90.12 257.88L90.13 248.85L93.87 250.93L93.87 259.93L93.87 259.93L90.12 257.88Z" id="b165RLNb1m"/><path d="M90.2 276.31L90.21 267.28L93.95 269.36L93.95 278.36L93.95 278.36L90.2 276.31Z" id="b2goglprIi"/><path d="M93.19 274.59C93.53 275.59 93.28 276.6 92.62 276.84C91.96 277.08 91.14 276.46 90.8 275.47C90.45 274.47 90.7 273.46 91.36 273.22C91.36 273.22 91.36 273.22 91.36 273.22C92.35 273.47 92.96 273.92 93.19 274.59Z" id="a2zeIrdFag"/><path d="M104.4 246.29L104.4 286.06L128.88 271.29L128.88 231.52L128.88 231.52L104.4 246.29Z" id="a3aNuWB5ck"/><path d="M128.88 233.75C127.32 234.72 119.52 239.55 105.47 248.24L115.25 265.77L134.62 238.35L134.62 238.35C131.8 236.39 129.88 234.86 128.88 233.75Z" id="c81TmjP8OR"/><path d="M111.75 250.15L111.75 289.92L135.46 275.61L135.46 235.84L135.46 235.84L111.75 250.15Z" id="bvhtKPcwu"/><path d="M104.4 286.06L104.4 246.28L111.76 250.15L111.75 289.92L111.75 289.92L104.4 286.06Z" id="a309lMTLgu"/><path d="M105.47 282.56L105.47 252.54L110.86 255.78L110.86 285.45L110.86 285.45L105.47 282.56Z" id="e4xh6am4qa"/><path d="M106.25 262.98L106.26 253.96L110 256.03L110 265.03L110 265.03L106.25 262.98Z" id="c9dnZv6pbW"/><path d="M106.32 281.41L106.34 272.39L110.08 274.46L110.08 283.46L110.08 283.46L106.32 281.41Z" id="a18beGIQIY"/><path d="M109.31 279.7C109.66 280.7 109.41 281.7 108.75 281.94C108.09 282.18 107.27 281.57 106.92 280.57C106.58 279.57 106.83 278.57 107.49 278.32C107.49 278.32 107.49 278.32 107.49 278.32C108.48 278.57 109.08 279.03 109.31 279.7Z" id="bm2Tcwqmq"/><path d="M424.17 194.57L427.57 191.19L444.82 201.4L449.44 198.53L468.07 210.3L468.32 239.26L424.13 207.3L424.13 207.3L424.17 194.57Z" id="f1LkZ7dNN"/><path d="M441.92 205.27L448.86 202.43L466.07 212.37L466.49 238.85L469.36 240.31L469.85 209.51L447.71 195.33L443.38 197.79L427.12 188.66L424.17 194.57L424.17 194.57L441.92 205.27Z" id="cGk7BldJq"/><path d="M427.38 194.69L464.1 215.08L465.07 241.58L426.47 213.01L426.47 213.01L427.38 194.69Z" id="ffq7facRK"/><path d="M423.15 239.85L465.61 264.51L468.92 262.83L469.37 235.5C456.91 227.86 449.98 223.61 448.59 222.76C448.59 222.76 448.94 219.02 447.08 217.52C445.23 216.03 425.1 203.81 425.1 203.81C424.95 203.96 424.19 204.73 422.82 206.11L422.82 206.11L423.15 239.85Z" id="dKzwDb6gI"/><path d="M422.44 205.59C426.2 209.2 431.34 211.44 435.8 214.05C439.77 216.38 441.61 217.37 445.7 220.29C446.13 222.06 446.4 223.51 447.05 225.19C449.95 227.71 466.43 236.99 469.47 238.54C470.15 238.89 470.49 237.98 471.3 237.69C472.81 237.15 470.32 232.9 469.93 232.37C466.59 227.85 461.86 224.26 457.41 221C453.08 217.81 448.57 214.9 444.11 211.91C437.31 207.35 430.39 203.36 423.25 199.42" id="a1d40flQsp"/><path d="M426.43 208.59L426.7 225.76L429.68 221.31L432.85 226.35L432.79 212.21L437.29 211.25L431.05 207.36L431.05 207.36L426.43 208.59Z" id="c6Hd7BIuL"/></defs><g><g><g><use xlink:href="#a4eAMEHme2" opacity="1" fill="#c6dffe" fill-opacity="1"/><g><use xlink:href="#a4eAMEHme2" opacity="1" fill-opacity="0" stroke="#000000" stroke-width="1" stroke-opacity="0"/></g></g><g><use xlink:href="#e1njsZqePx" opacity="1" fill="#a6cdfd" fill-opacity="1"/><g><use xlink:href="#e1njsZqePx" opacity="1" fill-opacity="0" stroke="#000000" stroke-width="1" stroke-opacity="0"/></g></g><g><use xlink:href="#g431HPHkUO" opacity="1" fill="#c6dffe" fill-opacity="1"/><g><use xlink:href="#g431HPHkUO" opacity="1" fill-opacity="0" stroke="#000000" stroke-width="1" stroke-opacity="0"/></g></g><g><use xlink:href="#a2eYFYDzb" opacity="1" fill="#c6dffe" fill-opacity="1"/><g><use xlink:href="#a2eYFYDzb" opacity="1" fill-opacity="0" stroke="#000000" stroke-width="1" stroke-opacity="0"/></g></g><g><use xlink:href="#b18kL15Zjp" opacity="1" fill="#84b2f7" fill-opacity="1"/><g><use xlink:href="#b18kL15Zjp" opacity="1" fill-opacity="0" stroke="#000000" stroke-width="1" stroke-opacity="0"/></g></g><g><use xlink:href="#byBnuS7tQ" opacity="1" fill="#63615f" fill-opacity="1"/><g><use xlink:href="#byBnuS7tQ" opacity="1" fill-opacity="0" stroke="#000000" stroke-width="1" stroke-opacity="0"/></g></g><g><use xlink:href="#g4pbQPMab6" opacity="1" fill="#6ea4f5" fill-opacity="1"/><g><use xlink:href="#g4pbQPMab6" opacity="1" fill-opacity="0" stroke="#000000" stroke-width="1" stroke-opacity="0"/></g></g><g><use xlink:href="#a3yYXMpkkJ" opacity="1" fill="#aed0fe" fill-opacity="1"/><g><use xlink:href="#a3yYXMpkkJ" opacity="1" fill-opacity="0" stroke="#000000" stroke-width="1" stroke-opacity="0"/></g></g><g><use xlink:href="#iVM5HTAT" opacity="1" fill="#edf3fc" fill-opacity="1"/><g><use xlink:href="#iVM5HTAT" opacity="1" fill-opacity="0" stroke="#000000" stroke-width="1" stroke-opacity="0"/></g></g><g><use xlink:href="#a46WA2Qv0Q" opacity="1" fill="#aed0fe" fill-opacity="1"/><g><use xlink:href="#a46WA2Qv0Q" opacity="1" fill-opacity="0" stroke="#000000" stroke-width="1" stroke-opacity="0"/></g></g><g><use xlink:href="#e27EmZvNKJ" opacity="1" fill="#edf3fc" fill-opacity="1"/><g><use xlink:href="#e27EmZvNKJ" opacity="1" fill-opacity="0" stroke="#000000" stroke-width="1" stroke-opacity="0"/></g></g><g><use xlink:href="#b2VAzuxYWX" opacity="1" fill="#7cb2fd" fill-opacity="1"/><g><use xlink:href="#b2VAzuxYWX" opacity="1" fill-opacity="0" stroke="#000000" stroke-width="1" stroke-opacity="0"/></g></g><g><use xlink:href="#cBffqoKv" opacity="1" fill="#85b7fd" fill-opacity="1"/><g><use xlink:href="#cBffqoKv" opacity="1" fill-opacity="0" stroke="#000000" stroke-width="1" stroke-opacity="0"/></g></g><g><use xlink:href="#d6mRXXW5f" opacity="1" fill="#accefd" fill-opacity="1"/><g><use xlink:href="#d6mRXXW5f" opacity="1" fill-opacity="0" stroke="#000000" stroke-width="1" stroke-opacity="0"/></g></g><g><use xlink:href="#c6085t635o" opacity="1" fill="#c7defe" fill-opacity="1"/><g><use xlink:href="#c6085t635o" opacity="1" fill-opacity="0" stroke="#000000" stroke-width="1" stroke-opacity="0"/></g></g><g><use xlink:href="#d17LoY4Wp" opacity="1" fill="#3e3c3b" fill-opacity="1"/><g><use xlink:href="#d17LoY4Wp" opacity="1" fill-opacity="0" stroke="#000000" stroke-width="1" stroke-opacity="0"/></g></g><g><use xlink:href="#a19bn4MhTm" opacity="1" fill="#63615f" fill-opacity="1"/><g><use xlink:href="#a19bn4MhTm" opacity="1" fill-opacity="0" stroke="#000000" stroke-width="1" stroke-opacity="0"/></g></g><g><use xlink:href="#jrkAxvRf7" opacity="1" fill="#63615f" fill-opacity="1"/><g><use xlink:href="#jrkAxvRf7" opacity="1" fill-opacity="0" stroke="#000000" stroke-width="1" stroke-opacity="0"/></g></g><g><use xlink:href="#b6ALQ6P2b" opacity="1" fill="#63615f" fill-opacity="1"/><g><use xlink:href="#b6ALQ6P2b" opacity="1" fill-opacity="0" stroke="#000000" stroke-width="1" stroke-opacity="0"/></g></g><g><use xlink:href="#bG2Y9gryF" opacity="1" fill="#63615f" fill-opacity="1"/><g><use xlink:href="#bG2Y9gryF" opacity="1" fill-opacity="0" stroke="#000000" stroke-width="1" stroke-opacity="0"/></g></g><g><use xlink:href="#c1tIWCVv35" opacity="1" fill="#63615f" fill-opacity="1"/><g><use xlink:href="#c1tIWCVv35" opacity="1" fill-opacity="0" stroke="#000000" stroke-width="1" stroke-opacity="0"/></g></g><g><use xlink:href="#g4XVtJfDUR" opacity="1" fill="#63615f" fill-opacity="1"/><g><use xlink:href="#g4XVtJfDUR" opacity="1" fill-opacity="0" stroke="#000000" stroke-width="1" stroke-opacity="0"/></g></g><g><use xlink:href="#dEZyeWoJ8" opacity="1" fill="#63615f" fill-opacity="1"/><g><use xlink:href="#dEZyeWoJ8" opacity="1" fill-opacity="0" stroke="#000000" stroke-width="1" stroke-opacity="0"/></g></g><g><use xlink:href="#c1zzAmzeNr" opacity="1" fill="#e1e9e9" fill-opacity="1"/><g><use xlink:href="#c1zzAmzeNr" opacity="1" fill-opacity="0" stroke="#000000" stroke-width="1" stroke-opacity="0"/></g></g><g><use xlink:href="#b56kHFOxOc" opacity="1" fill="#63615f" fill-opacity="1"/><g><use xlink:href="#b56kHFOxOc" opacity="1" fill-opacity="0" stroke="#000000" stroke-width="1" stroke-opacity="0"/></g></g><g><use xlink:href="#beAZjlRoZ" opacity="1" fill="#63615f" fill-opacity="1"/><g><use xlink:href="#beAZjlRoZ" opacity="1" fill-opacity="0" stroke="#000000" stroke-width="1" stroke-opacity="0"/></g></g><g><use xlink:href="#dYwqrDk0q" opacity="1" fill="#63615f" fill-opacity="1"/><g><use xlink:href="#dYwqrDk0q" opacity="1" fill-opacity="0" stroke="#000000" stroke-width="1" stroke-opacity="0"/></g></g><g><use xlink:href="#g17cntkui" opacity="1" fill="#63615f" fill-opacity="1"/><g><use xlink:href="#g17cntkui" opacity="1" fill-opacity="0" stroke="#000000" stroke-width="1" stroke-opacity="0"/></g></g><g><use xlink:href="#b7iYYiHPxa" opacity="1" fill="#63615f" fill-opacity="1"/><g><use xlink:href="#b7iYYiHPxa" opacity="1" fill-opacity="0" stroke="#000000" stroke-width="1" stroke-opacity="0"/></g></g><g><use xlink:href="#anoQFp3Np" opacity="1" fill="#63615f" fill-opacity="1"/><g><use xlink:href="#anoQFp3Np" opacity="1" fill-opacity="0" stroke="#000000" stroke-width="1" stroke-opacity="0"/></g></g><g><use xlink:href="#hf9A6labk" opacity="1" fill="#63615f" fill-opacity="1"/><g><use xlink:href="#hf9A6labk" opacity="1" fill-opacity="0" stroke="#000000" stroke-width="1" stroke-opacity="0"/></g></g><g><use xlink:href="#aJaaarPAy" opacity="1" fill="#63615f" fill-opacity="1"/><g><use xlink:href="#aJaaarPAy" opacity="1" fill-opacity="0" stroke="#000000" stroke-width="1" stroke-opacity="0"/></g></g><g><use xlink:href="#aADXNOGx" opacity="1" fill="#63615f" fill-opacity="1"/><g><use xlink:href="#aADXNOGx" opacity="1" fill-opacity="0" stroke="#000000" stroke-width="1" stroke-opacity="0"/></g></g><g><use xlink:href="#e39Pa8esNn" opacity="1" fill="#63615f" fill-opacity="1"/><g><use xlink:href="#e39Pa8esNn" opacity="1" fill-opacity="0" stroke="#000000" stroke-width="1" stroke-opacity="0"/></g></g><g><use xlink:href="#a115ppF9T" opacity="1" fill="#63615f" fill-opacity="1"/><g><use xlink:href="#a115ppF9T" opacity="1" fill-opacity="0" stroke="#000000" stroke-width="1" stroke-opacity="0"/></g></g><g><use xlink:href="#j5n8KsgkO" opacity="1" fill="#63615f" fill-opacity="1"/><g><use xlink:href="#j5n8KsgkO" opacity="1" fill-opacity="0" stroke="#000000" stroke-width="1" stroke-opacity="0"/></g></g><g><use xlink:href="#c176y3X7he" opacity="1" fill="#63615f" fill-opacity="1"/><g><use xlink:href="#c176y3X7he" opacity="1" fill-opacity="0" stroke="#000000" stroke-width="1" stroke-opacity="0"/></g></g><g><use xlink:href="#a3VzmV1Hi" opacity="1" fill="#63615f" fill-opacity="1"/><g><use xlink:href="#a3VzmV1Hi" opacity="1" fill-opacity="0" stroke="#000000" stroke-width="1" stroke-opacity="0"/></g></g><g><use xlink:href="#b2PR0K8x67" opacity="1" fill="#63615f" fill-opacity="1"/><g><use xlink:href="#b2PR0K8x67" opacity="1" fill-opacity="0" stroke="#000000" stroke-width="1" stroke-opacity="0"/></g></g><g><use xlink:href="#e1cOO7Mgc" opacity="1" fill="#63615f" fill-opacity="1"/><g><use xlink:href="#e1cOO7Mgc" opacity="1" fill-opacity="0" stroke="#000000" stroke-width="1" stroke-opacity="0"/></g></g><g><use xlink:href="#apUIScpUi" opacity="1" fill="#63615f" fill-opacity="1"/><g><use xlink:href="#apUIScpUi" opacity="1" fill-opacity="0" stroke="#000000" stroke-width="1" stroke-opacity="0"/></g></g><g><use xlink:href="#beneERtMC" opacity="1" fill="#63615f" fill-opacity="1"/><g><use xlink:href="#beneERtMC" opacity="1" fill-opacity="0" stroke="#000000" stroke-width="1" stroke-opacity="0"/></g></g><g><use xlink:href="#c3taXqHbiU" opacity="1" fill="#63615f" fill-opacity="1"/><g><use xlink:href="#c3taXqHbiU" opacity="1" fill-opacity="0" stroke="#000000" stroke-width="1" stroke-opacity="0"/></g></g><g><use xlink:href="#d34xVV7LBx" opacity="1" fill="#63615f" fill-opacity="1"/><g><use xlink:href="#d34xVV7LBx" opacity="1" fill-opacity="0" stroke="#000000" stroke-width="1" stroke-opacity="0"/></g></g><g><use xlink:href="#a35n3WQbN1" opacity="1" fill="#63615f" fill-opacity="1"/><g><use xlink:href="#a35n3WQbN1" opacity="1" fill-opacity="0" stroke="#000000" stroke-width="1" stroke-opacity="0"/></g></g><g><use xlink:href="#b4OgbjXy78" opacity="1" fill="#63615f" fill-opacity="1"/><g><use xlink:href="#b4OgbjXy78" opacity="1" fill-opacity="0" stroke="#000000" stroke-width="1" stroke-opacity="0"/></g></g><g><use xlink:href="#c1dt6Fuimf" opacity="1" fill="#63615f" fill-opacity="1"/><g><use xlink:href="#c1dt6Fuimf" opacity="1" fill-opacity="0" stroke="#000000" stroke-width="1" stroke-opacity="0"/></g></g><g><use xlink:href="#aYkYa75yA" opacity="1" fill="#63615f" fill-opacity="1"/><g><use xlink:href="#aYkYa75yA" opacity="1" fill-opacity="0" stroke="#000000" stroke-width="1" stroke-opacity="0"/></g></g><g><use xlink:href="#biwlnzzAg" opacity="1" fill="#63615f" fill-opacity="1"/><g><use xlink:href="#biwlnzzAg" opacity="1" fill-opacity="0" stroke="#000000" stroke-width="0.61" stroke-opacity="1"/></g></g><g><use xlink:href="#a3ir2IS59" opacity="1" fill="#63615f" fill-opacity="1"/><g><use xlink:href="#a3ir2IS59" opacity="1" fill-opacity="0" stroke="#000000" stroke-width="1" stroke-opacity="0"/></g></g><g><use xlink:href="#k1JIMFC3iV" opacity="1" fill="#63615f" fill-opacity="1"/><g><use xlink:href="#k1JIMFC3iV" opacity="1" fill-opacity="0" stroke="#000000" stroke-width="1" stroke-opacity="0"/></g></g><g><use xlink:href="#a2gAuM3lBE" opacity="1" fill="#63615f" fill-opacity="1"/><g><use xlink:href="#a2gAuM3lBE" opacity="1" fill-opacity="0" stroke="#000000" stroke-width="1" stroke-opacity="0"/></g></g><g><use xlink:href="#b22unHuiK" opacity="1" fill="#63615f" fill-opacity="1"/><g><use xlink:href="#b22unHuiK" opacity="1" fill-opacity="0" stroke="#000000" stroke-width="1" stroke-opacity="0"/></g></g><g><use xlink:href="#c6iJTsHzsP" opacity="1" fill="#63615f" fill-opacity="1"/><g><use xlink:href="#c6iJTsHzsP" opacity="1" fill-opacity="0" stroke="#000000" stroke-width="1" stroke-opacity="0"/></g></g><g><use xlink:href="#b1yyaVH29" opacity="1" fill="#63615f" fill-opacity="1"/><g><use xlink:href="#b1yyaVH29" opacity="1" fill-opacity="0" stroke="#000000" stroke-width="1" stroke-opacity="0"/></g></g><g><use xlink:href="#h3iiW0nIQ" opacity="1" fill="#63615f" fill-opacity="1"/><g><use xlink:href="#h3iiW0nIQ" opacity="1" fill-opacity="0" stroke="#000000" stroke-width="1" stroke-opacity="0"/></g></g><g><use xlink:href="#b98iTu8LT" opacity="1" fill="#63615f" fill-opacity="1"/><g><use xlink:href="#b98iTu8LT" opacity="1" fill-opacity="0" stroke="#000000" stroke-width="1" stroke-opacity="0"/></g></g><g><use xlink:href="#akmiKXS6" opacity="1" fill="#63615f" fill-opacity="1"/><g><use xlink:href="#akmiKXS6" opacity="1" fill-opacity="0" stroke="#000000" stroke-width="1" stroke-opacity="0"/></g></g><g><use xlink:href="#akl6iJXl1" opacity="1" fill="#63615f" fill-opacity="1"/><g><use xlink:href="#akl6iJXl1" opacity="1" fill-opacity="0" stroke="#000000" stroke-width="1" stroke-opacity="0"/></g></g><g><use xlink:href="#dfdCFjfkV" opacity="1" fill="#63615f" fill-opacity="1"/><g><use xlink:href="#dfdCFjfkV" opacity="1" fill-opacity="0" stroke="#000000" stroke-width="1" stroke-opacity="0"/></g></g><g><use xlink:href="#b36oTYZLj" opacity="1" fill="#ffffff" fill-opacity="1"/><g><use xlink:href="#b36oTYZLj" opacity="1" fill-opacity="0" stroke="#000000" stroke-width="1" stroke-opacity="0"/></g></g><g><use xlink:href="#aaLuliOhL" opacity="1" fill="#464544" fill-opacity="1"/><g><use xlink:href="#aaLuliOhL" opacity="1" fill-opacity="0" stroke="#000000" stroke-width="1" stroke-opacity="0"/></g></g><g><use xlink:href="#b2st36Z0z1" opacity="1" fill="#dde6e5" fill-opacity="1"/><g><use xlink:href="#b2st36Z0z1" opacity="1" fill-opacity="0" stroke="#000000" stroke-width="1" stroke-opacity="0"/></g></g><g><use xlink:href="#b2HEpWlzFr" opacity="1" fill="#fbf0eb" fill-opacity="1"/><g><use xlink:href="#b2HEpWlzFr" opacity="1" fill-opacity="0" stroke="#000000" stroke-width="1" stroke-opacity="0"/></g></g><g><use xlink:href="#d1hcmWDA0q" opacity="1" fill="#fdf6f3" fill-opacity="1"/><g><use xlink:href="#d1hcmWDA0q" opacity="1" fill-opacity="0" stroke="#000000" stroke-width="1" stroke-opacity="0"/></g></g><g><use xlink:href="#hkujM3hzz" opacity="1" fill="#fefaf8" fill-opacity="1"/><g><use xlink:href="#hkujM3hzz" opacity="1" fill-opacity="0" stroke="#000000" stroke-width="1" stroke-opacity="0"/></g></g><g><use xlink:href="#cry5TZ9xd" opacity="1" fill="#090909" fill-opacity="1"/><g><use xlink:href="#cry5TZ9xd" opacity="1" fill-opacity="0" stroke="#000000" stroke-width="1" stroke-opacity="0"/></g></g><g><use xlink:href="#b2DLuubBJQ" opacity="1" fill="#f6c1c4" fill-opacity="1"/><g><use xlink:href="#b2DLuubBJQ" opacity="1" fill-opacity="0" stroke="#000000" stroke-width="1" stroke-opacity="0"/></g></g><g><use xlink:href="#cy5gPNMx5" opacity="1" fill="#262625" fill-opacity="1"/><g><use xlink:href="#cy5gPNMx5" opacity="1" fill-opacity="0" stroke="#000000" stroke-width="1" stroke-opacity="0"/></g></g><g><use xlink:href="#cngm9gprX" opacity="1" fill="#090909" fill-opacity="1"/><g><use xlink:href="#cngm9gprX" opacity="1" fill-opacity="0" stroke="#000000" stroke-width="1" stroke-opacity="0"/></g></g><g><use xlink:href="#b1eiUMYP1" opacity="1" fill="#f6c1c4" fill-opacity="1"/><g><use xlink:href="#b1eiUMYP1" opacity="1" fill-opacity="0" stroke="#000000" stroke-width="1" stroke-opacity="0"/></g></g><g><use xlink:href="#bu1ycnpvK" opacity="1" fill="#373635" fill-opacity="1"/><g><use xlink:href="#bu1ycnpvK" opacity="1" fill-opacity="0" stroke="#000000" stroke-width="1" stroke-opacity="0"/></g></g><g><use xlink:href="#asMJRbpL4" opacity="1" fill="#f6c1c4" fill-opacity="1"/><g><use xlink:href="#asMJRbpL4" opacity="1" fill-opacity="0" stroke="#000000" stroke-width="1" stroke-opacity="0"/></g></g><g><use xlink:href="#eiqk4OBKI" opacity="1" fill="#f3a9ad" fill-opacity="1"/><g><use xlink:href="#eiqk4OBKI" opacity="1" fill-opacity="0" stroke="#000000" stroke-width="1" stroke-opacity="0"/></g></g><g><use xlink:href="#c78g8JHYT" opacity="1" fill="#522a34" fill-opacity="1"/><g><use xlink:href="#c78g8JHYT" opacity="1" fill-opacity="0" stroke="#000000" stroke-width="1" stroke-opacity="0"/></g></g><g><use xlink:href="#i7Fa8ICh9g" opacity="1" fill="#aed0fe" fill-opacity="1"/><g><use xlink:href="#i7Fa8ICh9g" opacity="1" fill-opacity="0" stroke="#000000" stroke-width="1" stroke-opacity="0"/></g></g><g><use xlink:href="#b7A4TiJMA" opacity="1" fill="#aed0fe" fill-opacity="1"/><g><use xlink:href="#b7A4TiJMA" opacity="1" fill-opacity="0" stroke="#000000" stroke-width="1" stroke-opacity="0"/></g></g><g><use xlink:href="#baACCPHrkM" opacity="1" fill="#89bbfd" fill-opacity="1"/><g><use xlink:href="#baACCPHrkM" opacity="1" fill-opacity="0" stroke="#000000" stroke-width="1" stroke-opacity="0"/></g></g><g><use xlink:href="#dcoqsM8U4" opacity="1" fill="#aed0fe" fill-opacity="1"/><g><use xlink:href="#dcoqsM8U4" opacity="1" fill-opacity="0" stroke="#000000" stroke-width="1" stroke-opacity="0"/></g></g><g><use xlink:href="#b6RYPdBE" opacity="1" fill="#464544" fill-opacity="1"/><g><use xlink:href="#b6RYPdBE" opacity="1" fill-opacity="0" stroke="#000000" stroke-width="1" stroke-opacity="0"/></g></g><g><use xlink:href="#b4uaaIfC6" opacity="1" fill="#2a3133" fill-opacity="1"/><g><use xlink:href="#b4uaaIfC6" opacity="1" fill-opacity="0" stroke="#000000" stroke-width="1" stroke-opacity="0"/></g></g><g><use xlink:href="#d41vK1vMAx" opacity="1" fill="#424c50" fill-opacity="1"/><g><use xlink:href="#d41vK1vMAx" opacity="1" fill-opacity="0" stroke="#000000" stroke-width="1" stroke-opacity="0"/></g></g><g><use xlink:href="#e1j7couEt" opacity="1" fill="#62615f" fill-opacity="1"/><g><use xlink:href="#e1j7couEt" opacity="1" fill-opacity="0" stroke="#000000" stroke-width="1" stroke-opacity="0"/></g></g><g><use xlink:href="#d8M236mHY" opacity="1" fill="#444342" fill-opacity="1"/><g><use xlink:href="#d8M236mHY" opacity="1" fill-opacity="0" stroke="#000000" stroke-width="1" stroke-opacity="0"/></g></g><g><use xlink:href="#c1kF18xxlA" opacity="1" fill="#529efb" fill-opacity="1"/><g><use xlink:href="#c1kF18xxlA" opacity="1" fill-opacity="0" stroke="#000000" stroke-width="1" stroke-opacity="0"/></g></g><g><use xlink:href="#g4PwFFr0XK" opacity="1" fill="#fdebf2" fill-opacity="1"/><g><use xlink:href="#g4PwFFr0XK" opacity="1" fill-opacity="0" stroke="#000000" stroke-width="1" stroke-opacity="0"/></g></g><g><use xlink:href="#a1jzPcTyz5" opacity="1" fill="#529efb" fill-opacity="1"/><g><use xlink:href="#a1jzPcTyz5" opacity="1" fill-opacity="0" stroke="#000000" stroke-width="1" stroke-opacity="0"/></g></g><g><use xlink:href="#a2DR9zPtO6" opacity="1" fill="#2886fa" fill-opacity="1"/><g><use xlink:href="#a2DR9zPtO6" opacity="1" fill-opacity="0" stroke="#000000" stroke-width="1" stroke-opacity="0"/></g></g><g><use xlink:href="#a37BTs7gQv" opacity="1" fill="#d1cecf" fill-opacity="1"/><g><use xlink:href="#a37BTs7gQv" opacity="1" fill-opacity="0" stroke="#000000" stroke-width="1" stroke-opacity="0"/></g></g><g><use xlink:href="#b165RLNb1m" opacity="1" fill="#efeeef" fill-opacity="1"/><g><use xlink:href="#b165RLNb1m" opacity="1" fill-opacity="0" stroke="#000000" stroke-width="1" stroke-opacity="0"/></g></g><g><use xlink:href="#b2goglprIi" opacity="1" fill="#efeeef" fill-opacity="1"/><g><use xlink:href="#b2goglprIi" opacity="1" fill-opacity="0" stroke="#000000" stroke-width="1" stroke-opacity="0"/></g></g><g><use xlink:href="#a2zeIrdFag" opacity="1" fill="#a5a0a2" fill-opacity="1"/><g><use xlink:href="#a2zeIrdFag" opacity="1" fill-opacity="0" stroke="#000000" stroke-width="1" stroke-opacity="0"/></g></g><g><use xlink:href="#a3aNuWB5ck" opacity="1" fill="#b91551" fill-opacity="1"/><g><use xlink:href="#a3aNuWB5ck" opacity="1" fill-opacity="0" stroke="#000000" stroke-width="1" stroke-opacity="0"/></g></g><g><use xlink:href="#c81TmjP8OR" opacity="1" fill="#fdebf2" fill-opacity="1"/><g><use xlink:href="#c81TmjP8OR" opacity="1" fill-opacity="0" stroke="#000000" stroke-width="1" stroke-opacity="0"/></g></g><g><use xlink:href="#bvhtKPcwu" opacity="1" fill="#b91551" fill-opacity="1"/><g><use xlink:href="#bvhtKPcwu" opacity="1" fill-opacity="0" stroke="#000000" stroke-width="1" stroke-opacity="0"/></g></g><g><use xlink:href="#a309lMTLgu" opacity="1" fill="#ab134b" fill-opacity="1"/><g><use xlink:href="#a309lMTLgu" opacity="1" fill-opacity="0" stroke="#000000" stroke-width="1" stroke-opacity="0"/></g></g><g><use xlink:href="#e4xh6am4qa" opacity="1" fill="#d1cecf" fill-opacity="1"/><g><use xlink:href="#e4xh6am4qa" opacity="1" fill-opacity="0" stroke="#000000" stroke-width="1" stroke-opacity="0"/></g></g><g><use xlink:href="#c9dnZv6pbW" opacity="1" fill="#efeeef" fill-opacity="1"/><g><use xlink:href="#c9dnZv6pbW" opacity="1" fill-opacity="0" stroke="#000000" stroke-width="1" stroke-opacity="0"/></g></g><g><use xlink:href="#a18beGIQIY" opacity="1" fill="#efeeef" fill-opacity="1"/><g><use xlink:href="#a18beGIQIY" opacity="1" fill-opacity="0" stroke="#000000" stroke-width="1" stroke-opacity="0"/></g></g><g><use xlink:href="#bm2Tcwqmq" opacity="1" fill="#a5a0a2" fill-opacity="1"/><g><use xlink:href="#bm2Tcwqmq" opacity="1" fill-opacity="0" stroke="#000000" stroke-width="1" stroke-opacity="0"/></g></g><g><use xlink:href="#f1LkZ7dNN" opacity="1" fill="#f9a71f" fill-opacity="1"/><g><use xlink:href="#f1LkZ7dNN" opacity="1" fill-opacity="0" stroke="#000000" stroke-width="1" stroke-opacity="0"/></g></g><g><use xlink:href="#cGk7BldJq" opacity="1" fill="#ec9506" fill-opacity="1"/><g><use xlink:href="#cGk7BldJq" opacity="1" fill-opacity="0" stroke="#000000" stroke-width="1" stroke-opacity="0"/></g></g><g><use xlink:href="#ffq7facRK" opacity="1" fill="#fef5e4" fill-opacity="1"/><g><use xlink:href="#ffq7facRK" opacity="1" fill-opacity="0" stroke="#000000" stroke-width="1" stroke-opacity="0"/></g></g><g><use xlink:href="#dKzwDb6gI" opacity="1" fill="#f9a71f" fill-opacity="1"/><g><use xlink:href="#dKzwDb6gI" opacity="1" fill-opacity="0" stroke="#000000" stroke-width="1" stroke-opacity="0"/></g></g><g><use xlink:href="#a1d40flQsp" opacity="1" fill="#e89306" fill-opacity="1"/><g><use xlink:href="#a1d40flQsp" opacity="1" fill-opacity="0" stroke="#000000" stroke-width="1" stroke-opacity="0"/></g></g><g><use xlink:href="#c6Hd7BIuL" opacity="1" fill="#b91551" fill-opacity="1"/><g><use xlink:href="#c6Hd7BIuL" opacity="1" fill-opacity="0" stroke="#000000" stroke-width="1" stroke-opacity="0"/></g></g></g></g></svg>